<svg xmlns:dc="http://purl.org/dc/elements/1.1/" xmlns:cc="http://creativecommons.org/ns#" xmlns:rdf="http://www.w3.org/1999/02/22-rdf-syntax-ns#" xmlns:svg="http://www.w3.org/2000/svg" xmlns="http://www.w3.org/2000/svg" xmlns:sodipodi="http://sodipodi.sourceforge.net/DTD/sodipodi-0.dtd" xmlns:inkscape="http://www.inkscape.org/namespaces/inkscape" viewBox="0 0 16.933333 21.166666250000002" version="1.1" x="0px" y="0px"><g transform="translate(0,-280.06669)"><path style="color:#000000;font-style:normal;font-variant:normal;font-weight:normal;font-stretch:normal;font-size:medium;line-height:normal;font-family:sans-serif;font-variant-ligatures:normal;font-variant-position:normal;font-variant-caps:normal;font-variant-numeric:normal;font-variant-alternates:normal;font-feature-settings:normal;text-indent:0;text-align:start;text-decoration:none;text-decoration-line:none;text-decoration-style:solid;text-decoration-color:#000000;letter-spacing:normal;word-spacing:normal;text-transform:none;writing-mode:lr-tb;direction:ltr;text-orientation:mixed;dominant-baseline:auto;baseline-shift:baseline;text-anchor:start;white-space:normal;shape-padding:0;clip-rule:nonzero;display:inline;overflow:visible;visibility:visible;opacity:1;isolation:auto;mix-blend-mode:normal;color-interpolation:sRGB;color-interpolation-filters:linearRGB;solid-color:#000000;solid-opacity:1;vector-effect:none;fill:#000000;fill-opacity:1;fill-rule:evenodd;stroke:none;stroke-width:3.99999976;stroke-linecap:round;stroke-linejoin:round;stroke-miterlimit:4;stroke-dasharray:none;stroke-dashoffset:8;stroke-opacity:1;paint-order:stroke fill markers;color-rendering:auto;image-rendering:auto;shape-rendering:auto;text-rendering:auto;enable-background:accumulate" d="M 32 2 C 15.455147 2 2 15.455156 2 32 C 2 48.544882 15.455147 62 32 62 C 48.544852 62 62 48.544882 62 32 C 62 15.455156 48.544852 2 32 2 z M 32 6 C 46.383091 6 58 17.616932 58 32 C 58 46.383106 46.383091 57.998047 32 57.998047 C 17.616907 57.998047 6.0019531 46.383106 6.0019531 32 C 6.0019531 17.616932 17.616907 6 32 6 z M 31.970703 17.974609 A 2.0002 2.0002 0 0 0 30 19.996094 L 30 29.998047 L 19.998047 29.998047 A 2.0004851 2.0004851 0 1 0 19.998047 34 L 30 34 L 30 44.001953 A 2.0004923 2.0004923 0 1 0 34.001953 44.001953 L 34.001953 34 L 44.003906 34 A 2.0004851 2.0004851 0 1 0 44.003906 29.998047 L 34.001953 29.998047 L 34.001953 19.996094 A 2.0002 2.0002 0 0 0 31.970703 17.974609 z " transform="matrix(0.26458333,0,0,0.26458333,0,280.06669)"/></g><text x="0" y="31.933333" fill="#000000" font-size="5px" font-weight="bold" font-family="'Helvetica Neue', Helvetica, Arial-Unicode, Arial, Sans-serif">Created by Mada Creative</text><text x="0" y="36.933333000000005" fill="#000000" font-size="5px" font-weight="bold" font-family="'Helvetica Neue', Helvetica, Arial-Unicode, Arial, Sans-serif">from the Noun Project</text></svg>