<svg xmlns="http://www.w3.org/2000/svg" data-name="Layer 1" viewBox="0 0 100 125" x="0px" y="0px"><title>NOUN_Sign</title><path d="M82.8,95.91,50,63.12,17.2,95.91a9.25,9.25,0,0,1-13.11,0h0a9.25,9.25,0,0,1,0-13.11L36.88,50,4.09,17.2a9.25,9.25,0,0,1,0-13.11h0a9.25,9.25,0,0,1,13.11,0L50,36.88,82.8,4.09a9.25,9.25,0,0,1,13.11,0h0a9.25,9.25,0,0,1,0,13.11L63.12,50,95.91,82.8a9.25,9.25,0,0,1,0,13.11h0A9.25,9.25,0,0,1,82.8,95.91Z"/><text x="0" y="115" fill="#000000" font-size="5px" font-weight="bold" font-family="'Helvetica Neue', Helvetica, Arial-Unicode, Arial, Sans-serif">Created by Kayla Valencia</text><text x="0" y="120" fill="#000000" font-size="5px" font-weight="bold" font-family="'Helvetica Neue', Helvetica, Arial-Unicode, Arial, Sans-serif">from the Noun Project</text></svg>